<mxfile host="app.diagrams.net" modified="2022-02-26T05:38:37.528Z" agent="5.0 (Windows NT 10.0; Win64; x64) AppleWebKit/537.36 (KHTML, like Gecko) Chrome/98.0.4758.102 Safari/537.36" etag="vPQNv0A0AEL_7o-8no9q" version="16.6.2" type="github">
  <diagram id="jpgyCimg_C4yJ3aij0ze" name="Page-1">
    <mxGraphModel dx="1038" dy="521" grid="1" gridSize="10" guides="1" tooltips="1" connect="1" arrows="1" fold="1" page="1" pageScale="1" pageWidth="850" pageHeight="1100" math="0" shadow="0">
      <root>
        <mxCell id="0" />
        <mxCell id="1" parent="0" />
        <mxCell id="iruNfY8hgb1oY8KxxeWh-50" value="" style="edgeStyle=orthogonalEdgeStyle;rounded=0;orthogonalLoop=1;jettySize=auto;html=1;fontSize=14;strokeColor=#FFFFFF;entryX=0;entryY=0.5;entryDx=0;entryDy=0;" edge="1" parent="1" source="iruNfY8hgb1oY8KxxeWh-1" target="iruNfY8hgb1oY8KxxeWh-5">
          <mxGeometry relative="1" as="geometry">
            <Array as="points">
              <mxPoint x="513" y="310" />
              <mxPoint x="513" y="255" />
            </Array>
          </mxGeometry>
        </mxCell>
        <mxCell id="iruNfY8hgb1oY8KxxeWh-51" value="" style="edgeStyle=orthogonalEdgeStyle;rounded=0;orthogonalLoop=1;jettySize=auto;html=1;fontSize=14;strokeColor=#FFFFFF;" edge="1" parent="1" source="iruNfY8hgb1oY8KxxeWh-1">
          <mxGeometry relative="1" as="geometry">
            <mxPoint x="560" y="330" as="targetPoint" />
            <Array as="points">
              <mxPoint x="490" y="330" />
              <mxPoint x="490" y="330" />
            </Array>
          </mxGeometry>
        </mxCell>
        <mxCell id="iruNfY8hgb1oY8KxxeWh-52" value="" style="edgeStyle=orthogonalEdgeStyle;rounded=0;orthogonalLoop=1;jettySize=auto;html=1;fontSize=14;strokeColor=#FFFFFF;exitX=1;exitY=0.5;exitDx=0;exitDy=0;" edge="1" parent="1" source="iruNfY8hgb1oY8KxxeWh-4">
          <mxGeometry relative="1" as="geometry">
            <mxPoint x="280" y="380" as="sourcePoint" />
            <mxPoint x="350" y="335" as="targetPoint" />
            <Array as="points" />
          </mxGeometry>
        </mxCell>
        <mxCell id="iruNfY8hgb1oY8KxxeWh-53" value="" style="edgeStyle=orthogonalEdgeStyle;rounded=0;orthogonalLoop=1;jettySize=auto;html=1;fontSize=14;strokeColor=#FFFFFF;exitX=1;exitY=0.5;exitDx=0;exitDy=0;" edge="1" parent="1" source="iruNfY8hgb1oY8KxxeWh-2">
          <mxGeometry relative="1" as="geometry">
            <mxPoint x="350" y="280" as="targetPoint" />
            <Array as="points">
              <mxPoint x="300" y="245" />
              <mxPoint x="300" y="280" />
            </Array>
          </mxGeometry>
        </mxCell>
        <mxCell id="iruNfY8hgb1oY8KxxeWh-1" value="Microcontroller&lt;br&gt;(ATmega328P)" style="rounded=0;whiteSpace=wrap;html=1;direction=south;fillColor=#C3ABD0;" vertex="1" parent="1">
          <mxGeometry x="360" y="240" width="105" height="210" as="geometry" />
        </mxCell>
        <mxCell id="iruNfY8hgb1oY8KxxeWh-2" value="&lt;font style=&quot;font-size: 14px&quot;&gt;Door Sensor&lt;/font&gt;" style="rounded=1;whiteSpace=wrap;html=1;fillColor=#FFD966;" vertex="1" parent="1">
          <mxGeometry x="130" y="220" width="120" height="50" as="geometry" />
        </mxCell>
        <mxCell id="iruNfY8hgb1oY8KxxeWh-4" value="&lt;font style=&quot;font-size: 14px&quot;&gt;Level Sensor&lt;/font&gt;" style="rounded=1;whiteSpace=wrap;html=1;fillColor=#FFD966;" vertex="1" parent="1">
          <mxGeometry x="130" y="310" width="120" height="50" as="geometry" />
        </mxCell>
        <mxCell id="iruNfY8hgb1oY8KxxeWh-5" value="&lt;div style=&quot;text-align: left&quot;&gt;&lt;span style=&quot;background-color: rgb(0 , 255 , 0)&quot;&gt;&lt;font style=&quot;font-size: 14px&quot;&gt;Motor&lt;/font&gt;&lt;/span&gt;&lt;/div&gt;" style="rounded=1;whiteSpace=wrap;html=1;fillColor=#00FF00;" vertex="1" parent="1">
          <mxGeometry x="560" y="230" width="110" height="50" as="geometry" />
        </mxCell>
        <mxCell id="iruNfY8hgb1oY8KxxeWh-6" value="&lt;font style=&quot;font-size: 14px&quot;&gt;Limit Switch&lt;/font&gt;" style="rounded=1;whiteSpace=wrap;html=1;fillColor=#00FF00;" vertex="1" parent="1">
          <mxGeometry x="560" y="310" width="110" height="50" as="geometry" />
        </mxCell>
        <mxCell id="iruNfY8hgb1oY8KxxeWh-8" style="edgeStyle=orthogonalEdgeStyle;rounded=0;orthogonalLoop=1;jettySize=auto;html=1;exitX=0.5;exitY=1;exitDx=0;exitDy=0;" edge="1" parent="1" source="iruNfY8hgb1oY8KxxeWh-6" target="iruNfY8hgb1oY8KxxeWh-6">
          <mxGeometry relative="1" as="geometry" />
        </mxCell>
        <mxCell id="iruNfY8hgb1oY8KxxeWh-9" value="" style="endArrow=none;dashed=1;html=1;dashPattern=1 3;strokeWidth=2;rounded=0;fontSize=14;strokeColor=#FFFF00;" edge="1" parent="1">
          <mxGeometry width="50" height="50" relative="1" as="geometry">
            <mxPoint x="120" y="380" as="sourcePoint" />
            <mxPoint x="120" y="200" as="targetPoint" />
          </mxGeometry>
        </mxCell>
        <mxCell id="iruNfY8hgb1oY8KxxeWh-11" value="" style="endArrow=none;dashed=1;html=1;dashPattern=1 3;strokeWidth=2;rounded=0;fontSize=14;strokeColor=#FFFF00;" edge="1" parent="1">
          <mxGeometry width="50" height="50" relative="1" as="geometry">
            <mxPoint x="120" y="200" as="sourcePoint" />
            <mxPoint x="280" y="200" as="targetPoint" />
          </mxGeometry>
        </mxCell>
        <mxCell id="iruNfY8hgb1oY8KxxeWh-15" value="" style="endArrow=none;dashed=1;html=1;dashPattern=1 3;strokeWidth=2;rounded=0;fontSize=14;strokeColor=#FFFF00;" edge="1" parent="1">
          <mxGeometry width="50" height="50" relative="1" as="geometry">
            <mxPoint x="270" y="380" as="sourcePoint" />
            <mxPoint x="270" y="200" as="targetPoint" />
          </mxGeometry>
        </mxCell>
        <mxCell id="iruNfY8hgb1oY8KxxeWh-16" value="" style="endArrow=none;dashed=1;html=1;dashPattern=1 3;strokeWidth=2;rounded=0;fontSize=14;strokeColor=#FFFF00;" edge="1" parent="1">
          <mxGeometry width="50" height="50" relative="1" as="geometry">
            <mxPoint x="120" y="380" as="sourcePoint" />
            <mxPoint x="270" y="380" as="targetPoint" />
          </mxGeometry>
        </mxCell>
        <mxCell id="iruNfY8hgb1oY8KxxeWh-17" value="" style="endArrow=none;dashed=1;html=1;dashPattern=1 3;strokeWidth=2;rounded=0;fontSize=14;strokeColor=#FFFF00;" edge="1" parent="1">
          <mxGeometry width="50" height="50" relative="1" as="geometry">
            <mxPoint x="680" y="200" as="sourcePoint" />
            <mxPoint x="540" y="200" as="targetPoint" />
          </mxGeometry>
        </mxCell>
        <mxCell id="iruNfY8hgb1oY8KxxeWh-18" value="" style="endArrow=none;dashed=1;html=1;dashPattern=1 3;strokeWidth=2;rounded=0;fontSize=14;strokeColor=#FFFF00;" edge="1" parent="1">
          <mxGeometry width="50" height="50" relative="1" as="geometry">
            <mxPoint x="540" y="380" as="sourcePoint" />
            <mxPoint x="540" y="200" as="targetPoint" />
          </mxGeometry>
        </mxCell>
        <mxCell id="iruNfY8hgb1oY8KxxeWh-19" value="" style="endArrow=none;dashed=1;html=1;dashPattern=1 3;strokeWidth=2;rounded=0;fontSize=14;strokeColor=#FFFF00;" edge="1" parent="1">
          <mxGeometry width="50" height="50" relative="1" as="geometry">
            <mxPoint x="700" y="380" as="sourcePoint" />
            <mxPoint x="700" y="200" as="targetPoint" />
          </mxGeometry>
        </mxCell>
        <mxCell id="iruNfY8hgb1oY8KxxeWh-20" value="" style="endArrow=none;dashed=1;html=1;dashPattern=1 3;strokeWidth=2;rounded=0;fontSize=14;strokeColor=#FFFF00;" edge="1" parent="1">
          <mxGeometry width="50" height="50" relative="1" as="geometry">
            <mxPoint x="540" y="380" as="sourcePoint" />
            <mxPoint x="700" y="380" as="targetPoint" />
          </mxGeometry>
        </mxCell>
        <mxCell id="iruNfY8hgb1oY8KxxeWh-41" style="edgeStyle=orthogonalEdgeStyle;rounded=0;orthogonalLoop=1;jettySize=auto;html=1;fontSize=14;strokeColor=#FFFFFF;" edge="1" parent="1" source="iruNfY8hgb1oY8KxxeWh-22">
          <mxGeometry relative="1" as="geometry">
            <mxPoint x="350" y="390" as="targetPoint" />
            <Array as="points">
              <mxPoint x="280" y="490" />
              <mxPoint x="280" y="390" />
            </Array>
          </mxGeometry>
        </mxCell>
        <mxCell id="iruNfY8hgb1oY8KxxeWh-22" value="&lt;span style=&quot;background-color: rgb(234 , 107 , 102)&quot;&gt;KeyPad&lt;/span&gt;" style="rounded=1;whiteSpace=wrap;html=1;labelBackgroundColor=#00FF00;fontSize=14;fillColor=#EA6B66;" vertex="1" parent="1">
          <mxGeometry x="130" y="460" width="120" height="60" as="geometry" />
        </mxCell>
        <mxCell id="iruNfY8hgb1oY8KxxeWh-42" value="" style="edgeStyle=orthogonalEdgeStyle;rounded=0;orthogonalLoop=1;jettySize=auto;html=1;fontSize=14;strokeColor=#FFFFFF;" edge="1" parent="1" source="iruNfY8hgb1oY8KxxeWh-23">
          <mxGeometry relative="1" as="geometry">
            <mxPoint x="340" y="410" as="targetPoint" />
            <Array as="points">
              <mxPoint x="290" y="580" />
              <mxPoint x="290" y="410" />
            </Array>
          </mxGeometry>
        </mxCell>
        <mxCell id="iruNfY8hgb1oY8KxxeWh-23" value="&lt;span style=&quot;background-color: rgb(234 , 107 , 102)&quot;&gt;Buttons&lt;/span&gt;" style="rounded=1;whiteSpace=wrap;html=1;labelBackgroundColor=#00FF00;fontSize=14;fillColor=#EA6B66;" vertex="1" parent="1">
          <mxGeometry x="130" y="550" width="120" height="60" as="geometry" />
        </mxCell>
        <mxCell id="iruNfY8hgb1oY8KxxeWh-25" value="Alaram Switch" style="rounded=1;whiteSpace=wrap;html=1;labelBackgroundColor=#EA6B66;fontSize=14;fillColor=#EA6B66;" vertex="1" parent="1">
          <mxGeometry x="130" y="640" width="120" height="60" as="geometry" />
        </mxCell>
        <mxCell id="iruNfY8hgb1oY8KxxeWh-26" value="" style="endArrow=none;dashed=1;html=1;dashPattern=1 3;strokeWidth=2;rounded=0;fontSize=14;strokeColor=#FFFF00;" edge="1" parent="1">
          <mxGeometry width="50" height="50" relative="1" as="geometry">
            <mxPoint x="270" y="720" as="sourcePoint" />
            <mxPoint x="270" y="440" as="targetPoint" />
          </mxGeometry>
        </mxCell>
        <mxCell id="iruNfY8hgb1oY8KxxeWh-27" value="" style="endArrow=none;dashed=1;html=1;dashPattern=1 3;strokeWidth=2;rounded=0;fontSize=14;strokeColor=#FFFF00;" edge="1" parent="1">
          <mxGeometry width="50" height="50" relative="1" as="geometry">
            <mxPoint x="100" y="720" as="sourcePoint" />
            <mxPoint x="100" y="440" as="targetPoint" />
          </mxGeometry>
        </mxCell>
        <mxCell id="iruNfY8hgb1oY8KxxeWh-28" value="" style="endArrow=none;dashed=1;html=1;dashPattern=1 3;strokeWidth=2;rounded=0;fontSize=14;strokeColor=#FFFF00;" edge="1" parent="1">
          <mxGeometry width="50" height="50" relative="1" as="geometry">
            <mxPoint x="100" y="440" as="sourcePoint" />
            <mxPoint x="270" y="440" as="targetPoint" />
          </mxGeometry>
        </mxCell>
        <mxCell id="iruNfY8hgb1oY8KxxeWh-30" value="" style="endArrow=none;dashed=1;html=1;dashPattern=1 3;strokeWidth=2;rounded=0;fontSize=14;strokeColor=#FFFF00;" edge="1" parent="1">
          <mxGeometry width="50" height="50" relative="1" as="geometry">
            <mxPoint x="100" y="720" as="sourcePoint" />
            <mxPoint x="270" y="720" as="targetPoint" />
          </mxGeometry>
        </mxCell>
        <mxCell id="iruNfY8hgb1oY8KxxeWh-47" value="" style="edgeStyle=orthogonalEdgeStyle;rounded=0;orthogonalLoop=1;jettySize=auto;html=1;fontSize=14;strokeColor=#FFFFFF;exitX=0;exitY=0.5;exitDx=0;exitDy=0;" edge="1" parent="1" source="iruNfY8hgb1oY8KxxeWh-31">
          <mxGeometry relative="1" as="geometry">
            <mxPoint x="480" y="390" as="targetPoint" />
            <Array as="points">
              <mxPoint x="530" y="490" />
              <mxPoint x="530" y="390" />
            </Array>
          </mxGeometry>
        </mxCell>
        <mxCell id="iruNfY8hgb1oY8KxxeWh-31" value="&lt;span style=&quot;background-color: rgb(255 , 153 , 153)&quot;&gt;LCD Display&lt;/span&gt;" style="rounded=1;whiteSpace=wrap;html=1;labelBackgroundColor=#EA6B66;fontSize=14;fillColor=#FF9999;" vertex="1" parent="1">
          <mxGeometry x="560" y="460" width="120" height="60" as="geometry" />
        </mxCell>
        <mxCell id="iruNfY8hgb1oY8KxxeWh-48" value="" style="edgeStyle=orthogonalEdgeStyle;rounded=0;orthogonalLoop=1;jettySize=auto;html=1;fontSize=14;strokeColor=#FFFFFF;" edge="1" parent="1" source="iruNfY8hgb1oY8KxxeWh-32">
          <mxGeometry relative="1" as="geometry">
            <mxPoint x="480" y="410" as="targetPoint" />
            <Array as="points">
              <mxPoint x="520" y="580" />
              <mxPoint x="520" y="410" />
            </Array>
          </mxGeometry>
        </mxCell>
        <mxCell id="iruNfY8hgb1oY8KxxeWh-32" value="&lt;span style=&quot;background-color: rgb(255 , 153 , 153)&quot;&gt;LED Indicator&lt;/span&gt;" style="rounded=1;whiteSpace=wrap;html=1;labelBackgroundColor=#EA6B66;fontSize=14;fillColor=#FF9999;" vertex="1" parent="1">
          <mxGeometry x="560" y="550" width="120" height="60" as="geometry" />
        </mxCell>
        <mxCell id="iruNfY8hgb1oY8KxxeWh-49" value="" style="edgeStyle=orthogonalEdgeStyle;rounded=0;orthogonalLoop=1;jettySize=auto;html=1;fontSize=14;strokeColor=#FFFFFF;" edge="1" parent="1" source="iruNfY8hgb1oY8KxxeWh-33">
          <mxGeometry relative="1" as="geometry">
            <mxPoint x="480" y="430" as="targetPoint" />
            <Array as="points">
              <mxPoint x="510" y="670" />
              <mxPoint x="510" y="430" />
            </Array>
          </mxGeometry>
        </mxCell>
        <mxCell id="iruNfY8hgb1oY8KxxeWh-33" value="&lt;span style=&quot;background-color: rgb(255 , 153 , 153)&quot;&gt;Buzzer&lt;/span&gt;" style="rounded=1;whiteSpace=wrap;html=1;labelBackgroundColor=#EA6B66;fontSize=14;fillColor=#FF9999;" vertex="1" parent="1">
          <mxGeometry x="560" y="640" width="120" height="60" as="geometry" />
        </mxCell>
        <mxCell id="iruNfY8hgb1oY8KxxeWh-34" value="" style="endArrow=none;dashed=1;html=1;dashPattern=1 3;strokeWidth=2;rounded=0;fontSize=14;strokeColor=#FFFF00;" edge="1" parent="1">
          <mxGeometry width="50" height="50" relative="1" as="geometry">
            <mxPoint x="540" y="710" as="sourcePoint" />
            <mxPoint x="540" y="440" as="targetPoint" />
          </mxGeometry>
        </mxCell>
        <mxCell id="iruNfY8hgb1oY8KxxeWh-35" value="" style="endArrow=none;dashed=1;html=1;dashPattern=1 3;strokeWidth=2;rounded=0;fontSize=14;strokeColor=#FFFF00;" edge="1" parent="1">
          <mxGeometry width="50" height="50" relative="1" as="geometry">
            <mxPoint x="540" y="440" as="sourcePoint" />
            <mxPoint x="700" y="440" as="targetPoint" />
          </mxGeometry>
        </mxCell>
        <mxCell id="iruNfY8hgb1oY8KxxeWh-36" value="" style="endArrow=none;dashed=1;html=1;dashPattern=1 3;strokeWidth=2;rounded=0;fontSize=14;strokeColor=#FFFF00;" edge="1" parent="1">
          <mxGeometry width="50" height="50" relative="1" as="geometry">
            <mxPoint x="540" y="720" as="sourcePoint" />
            <mxPoint x="700" y="720" as="targetPoint" />
          </mxGeometry>
        </mxCell>
        <mxCell id="iruNfY8hgb1oY8KxxeWh-37" value="" style="endArrow=none;dashed=1;html=1;dashPattern=1 3;strokeWidth=2;rounded=0;fontSize=14;strokeColor=#FFFF00;" edge="1" parent="1">
          <mxGeometry width="50" height="50" relative="1" as="geometry">
            <mxPoint x="700" y="710" as="sourcePoint" />
            <mxPoint x="700" y="440" as="targetPoint" />
          </mxGeometry>
        </mxCell>
        <mxCell id="iruNfY8hgb1oY8KxxeWh-54" value="" style="edgeStyle=orthogonalEdgeStyle;rounded=0;orthogonalLoop=1;jettySize=auto;html=1;fontSize=14;strokeColor=#FFFFFF;" edge="1" parent="1" source="iruNfY8hgb1oY8KxxeWh-38" target="iruNfY8hgb1oY8KxxeWh-5">
          <mxGeometry relative="1" as="geometry" />
        </mxCell>
        <mxCell id="iruNfY8hgb1oY8KxxeWh-56" value="" style="edgeStyle=orthogonalEdgeStyle;rounded=0;orthogonalLoop=1;jettySize=auto;html=1;fontSize=14;strokeColor=#FFFFFF;" edge="1" parent="1" source="iruNfY8hgb1oY8KxxeWh-38">
          <mxGeometry relative="1" as="geometry">
            <mxPoint x="410" y="230" as="targetPoint" />
          </mxGeometry>
        </mxCell>
        <mxCell id="iruNfY8hgb1oY8KxxeWh-58" value="" style="edgeStyle=orthogonalEdgeStyle;rounded=0;orthogonalLoop=1;jettySize=auto;html=1;fontSize=14;strokeColor=#FFFFFF;entryX=1;entryY=0.5;entryDx=0;entryDy=0;" edge="1" parent="1" source="iruNfY8hgb1oY8KxxeWh-38" target="iruNfY8hgb1oY8KxxeWh-31">
          <mxGeometry relative="1" as="geometry">
            <mxPoint x="710" y="90" as="targetPoint" />
            <Array as="points">
              <mxPoint x="700" y="90" />
              <mxPoint x="700" y="490" />
            </Array>
          </mxGeometry>
        </mxCell>
        <mxCell id="iruNfY8hgb1oY8KxxeWh-38" value="&lt;span style=&quot;background-color: rgb(255 , 255 , 102)&quot;&gt;Power Supply&lt;/span&gt;" style="ellipse;whiteSpace=wrap;html=1;labelBackgroundColor=#FF9999;fontSize=14;fillColor=#FFFF66;" vertex="1" parent="1">
          <mxGeometry x="510" y="50" width="120" height="80" as="geometry" />
        </mxCell>
        <mxCell id="iruNfY8hgb1oY8KxxeWh-40" value="" style="edgeStyle=orthogonalEdgeStyle;rounded=0;orthogonalLoop=1;jettySize=auto;html=1;fontSize=14;strokeColor=#FFFFFF;" edge="1" parent="1" source="iruNfY8hgb1oY8KxxeWh-39" target="iruNfY8hgb1oY8KxxeWh-1">
          <mxGeometry relative="1" as="geometry" />
        </mxCell>
        <mxCell id="iruNfY8hgb1oY8KxxeWh-39" value="&lt;span style=&quot;background-color: rgb(255 , 51 , 51)&quot;&gt;Emergency&amp;nbsp;&lt;br&gt;Switch&amp;nbsp; &amp;nbsp; &amp;nbsp; &amp;nbsp; &amp;nbsp;&lt;br&gt;&lt;/span&gt;" style="shape=parallelogram;perimeter=parallelogramPerimeter;whiteSpace=wrap;html=1;fixedSize=1;labelBackgroundColor=#FFFF66;fontSize=14;fillColor=#FF3333;" vertex="1" parent="1">
          <mxGeometry x="353" y="550" width="120" height="60" as="geometry" />
        </mxCell>
        <mxCell id="iruNfY8hgb1oY8KxxeWh-44" value="" style="endArrow=classic;html=1;rounded=0;fontSize=14;strokeColor=#FFFFFF;" edge="1" parent="1">
          <mxGeometry width="50" height="50" relative="1" as="geometry">
            <mxPoint x="300" y="430" as="sourcePoint" />
            <mxPoint x="340" y="430" as="targetPoint" />
          </mxGeometry>
        </mxCell>
        <mxCell id="iruNfY8hgb1oY8KxxeWh-45" value="" style="endArrow=none;html=1;rounded=0;fontSize=14;strokeColor=#FFFFFF;" edge="1" parent="1">
          <mxGeometry width="50" height="50" relative="1" as="geometry">
            <mxPoint x="300" y="670" as="sourcePoint" />
            <mxPoint x="300" y="430" as="targetPoint" />
          </mxGeometry>
        </mxCell>
        <mxCell id="iruNfY8hgb1oY8KxxeWh-46" value="" style="endArrow=none;html=1;rounded=0;fontSize=14;strokeColor=#FFFFFF;exitX=1;exitY=0.5;exitDx=0;exitDy=0;" edge="1" parent="1" source="iruNfY8hgb1oY8KxxeWh-25">
          <mxGeometry width="50" height="50" relative="1" as="geometry">
            <mxPoint x="250" y="700" as="sourcePoint" />
            <mxPoint x="300" y="670" as="targetPoint" />
          </mxGeometry>
        </mxCell>
      </root>
    </mxGraphModel>
  </diagram>
</mxfile>
